<?xml version="1.0" encoding="UTF-8"?>
<svg id="Layer_1" data-name="Layer 1" xmlns="http://www.w3.org/2000/svg" viewBox="0 0 1363.89 649.09">
  <defs>
    <style>
      .cls-1 {
        fill: #6c3baa;
      }
    </style>
  </defs>
  <path d="M289,23.54c1.47-10.34,14.12-22.15,24.51-23.48l289.03-.06c13.82,2.03,23.72,11.25,26.04,25.1l296.82.05c18.12,2.34,27.53,17.35,25.6,34.9l386.42.08c11.74,2.61,24.13,10.41,25.59,23.41,1.15,10.2,1.34,45.03-.46,54.55-1.29,6.81-7.66,15.04-13.86,18.14-.94.47-6.8,2.82-7.18,2.82h-41.5v35.5c0,9.47-18.07,22.92-27.92,20.85l-205.07-.35c-.47,1.92.71,1.93,1.68,2.81,31.79,28.93,55.73,71.19,67.58,112.42,45.06,156.71-74.83,312.52-234.72,318.81H241.47c-184.92-11.05-302.02-208.96-208.63-374.71,35.61-63.21,102.12-111.57,173.94-124.06,27.39-4.76,54.46-4.63,82.23-4.27V23.55h-.01Z"/>
  <polygon class="cls-1" points="602 26.04 315 26.04 316.63 146.88 602 145.54 602 26.04 602 26.04"/>
  <polygon class="cls-1" points="924 51.04 629 51.04 629 145.54 924 146.04 924 51.04"/>
  <polygon class="cls-1" points="1337 133.04 1337 87.54 951 87.04 951 133.04 1337 133.04"/>
  <path class="cls-1" d="M1034.5,189.04h238l1.5-1.5v-24c0-.94-.45-2.44-.47-3.51l-297.52-.98,41.69,18.79,16.8,11.2Z"/>
  <path class="cls-1" d="M1050.59,236.48c-39.87-38.86-93.18-62.05-149.05-64.47-207.77,2.59-415.46-2.78-623.04,0-70.07.94-123.42,9.67-177.02,59.01-146.25,134.62-63.25,370.74,130.08,390.9,227.42,1.95,455.43,1.72,682.94.12,176.55-20,268.46-220.16,155.48-364.24l-19.38-21.32h-.01Z"/>
  <path d="M978.59,288.48c67.39,59.39,63.83,165.7-6.7,220.96-30.65,24.01-63.15,30.74-101.35,31.65-200.94,4.78-403.7-3.72-605.09,0-66.26-1.15-124.66-42.29-142.17-106.83-24.8-91.44,43.92-179.79,137.27-182.76l622.4.02c34.87.2,69.63,14.05,95.64,36.97h0Z"/>
  <path class="cls-1" d="M969.42,319.62c-18.62-20.66-43.52-34.29-70.98-39.62-205.72.15-411.49-4.17-617.94-1.4-40.98.55-73.56,6.48-102.46,37.93-68.43,74.5-21.11,186.17,76.59,196.38l635.86.11c95.59-8.81,145.39-119.67,78.93-193.4h0Z"/>
  <path d="M338.65,326.39c47.28,47.28,34.1,125.29-24.14,156.66-68.43,36.85-152.71-19.37-144.49-96.5,8.59-80.68,110.5-118.29,168.63-60.16Z"/>
  <path class="cls-1" d="M323.59,441.63c63.08-78.68-61.31-167.01-115.4-83.9-48.89,75.12,60.48,152.4,115.4,83.9Z"/>
  <path d="M954.59,457.63c-49.46,61.76-149.96,42.04-171.85-33.83-23.85-82.68,64.4-153.92,140.75-114.75,54.84,28.14,69.65,100.45,31.1,148.58Z"/>
  <path class="cls-1" d="M831.42,450.62c37.69,31.32,95.68,17.85,113.04-28.62,25.08-67.13-52.49-126.04-110.37-82.37-36.46,27.51-37.89,81.73-2.66,111h-.01Z"/>
</svg>