<svg xmlns="http://www.w3.org/2000/svg" viewBox="0 0 1200 630" width="1200" height="630">
  <defs>
    <pattern id="hex" x="0" y="0" width="56" height="48.5" patternUnits="userSpaceOnUse">
      <path d="M28 0 L56 16 L56 48 L28 65 L0 48 L0 16 Z" fill="none" stroke="#8C7558" stroke-width="0.6" opacity="0.35"/>
    </pattern>
  </defs>

  <!-- Background -->
  <rect width="1200" height="630" fill="#F5F1EA"/>
  <rect width="1200" height="630" fill="url(#hex)"/>

  <!-- Decorative border -->
  <rect x="24" y="24" width="1152" height="582" rx="10" fill="none" stroke="#C8982E" stroke-width="1.5" opacity="0.28"/>

  <!-- Carretto — centered, scaled to 580px wide -->
  <!-- Native carretto viewBox: 0 0 1363 649 → scale 580/1363 ≈ 0.4256 -->
  <!-- x offset: (1200 - 580) / 2 = 310  |  y: 58 -->
  <g transform="translate(310,58) scale(0.4256)" fill="#C8982E">
    <path d="M289,23.54c1.47-10.34,14.12-22.15,24.51-23.48l289.03-.06c13.82,2.03,23.72,11.25,26.04,25.1l296.82.05c18.12,2.34,27.53,17.35,25.6,34.9l386.42.08c11.74,2.61,24.13,10.41,25.59,23.41,1.15,10.2,1.34,45.03-.46,54.55-1.29,6.81-7.66,15.04-13.86,18.14-.94.47-6.8,2.82-7.18,2.82h-41.5v35.5c0,9.47-18.07,22.92-27.92,20.85l-205.07-.35c-.47,1.92.71,1.93,1.68,2.81,31.79,28.93,55.73,71.19,67.58,112.42,45.06,156.71-74.83,312.52-234.72,318.81H241.47c-184.92-11.05-302.02-208.96-208.63-374.71,35.61-63.21,102.12-111.57,173.94-124.06,27.39-4.76,54.46-4.63,82.23-4.27V23.55h-.01Z"/>
    <path d="M978.59,288.48c67.39,59.39,63.83,165.7-6.7,220.96-30.65,24.01-63.15,30.74-101.35,31.65-200.94,4.78-403.7-3.72-605.09,0-66.26-1.15-124.66-42.29-142.17-106.83-24.8-91.44,43.92-179.79,137.27-182.76l622.4.02c34.87.2,69.63,14.05,95.64,36.97h0Z"/>
    <path d="M338.65,326.39c47.28,47.28,34.1,125.29-24.14,156.66-68.43,36.85-152.71-19.37-144.49-96.5,8.59-80.68,110.5-118.29,168.63-60.16Z"/>
    <path d="M954.59,457.63c-49.46,61.76-149.96,42.04-171.85-33.83-23.85-82.68,64.4-153.92,140.75-114.75,54.84,28.14,69.65,100.45,31.1,148.58Z"/>
  </g>

  <!-- Title -->
  <text x="600" y="446"
        text-anchor="middle"
        font-family="'Outfit', 'Helvetica Neue', Helvetica, Arial, sans-serif"
        font-weight="800"
        font-size="82"
        fill="#1A1510"
        letter-spacing="-2">Risikino</text>

  <!-- Subtitle -->
  <text x="600" y="510"
        text-anchor="middle"
        font-family="'Inter', 'Helvetica Neue', Helvetica, Arial, sans-serif"
        font-weight="400"
        font-size="24"
        fill="#6B5430"
        letter-spacing="0.8">Il diario di bordo del tuo Risiko</text>
</svg>
